# xmcd
#
# Track frame offsets: 
#        150
#        18100
#        32652
#        46720
#        55555
#        71797
#        82560
#        97645
#        114450
#        130492
#        144502
#        164610
#        178670
#        192652
#        208415
#        225925
#        244460
#
# Disc length: 3398 seconds
#
# Revision: 0
# Processed by: cddbd v1.5.2PL0 Copyright (c) Steve Scherf et al.
# Submitted via: ExactAudioCopy v0.99pb5
#
DISCID=df0d4411
DTITLE=Sly and the Family Stone - A whole new thing
DYEAR=1967
DGENRE=Funk
TTITLE0=Underdog
TTITLE1=If this room could talk
TTITLE2=Run, run, run
TTITLE3=Turn me loose
TTITLE4=Let me hear it from you 
TTITLE5=Advice
TTITLE6=I cannot make it
TTITLE7=Trip to your heart
TTITLE8=I hate to love her
TTITLE9=Bad risk
TTITLE10=That kind of person
TTITLE11=Dog
TTITLE12=Underdog [Single version] [Bonus]
TTITLE13=Let me hear it from you [Single version] [Bonus]
TTITLE14=Only one way out of this mess [Bonus]
TTITLE15=What would I do [Bonus]
TTITLE16=You better help yourself [Instrumental] [Bonus]
EXTD=
EXTT0=
EXTT1=
EXTT2=
EXTT3=
EXTT4=
EXTT5=
EXTT6=
EXTT7=
EXTT8=
EXTT9=
EXTT10=
EXTT11=
EXTT12=
EXTT13=
EXTT14=
EXTT15=
EXTT16=
PLAYORDER=
